<?xml version="1.0" encoding="UTF-8"?>
<svg id="Layer_2" data-name="Layer 2" xmlns="http://www.w3.org/2000/svg" xmlns:xlink="http://www.w3.org/1999/xlink" viewBox="0 0 869 905">
  <defs>
    <style>
      .cls-1 {
        fill: url(#linear-gradient-3);
        filter: url(#drop-shadow-3);
      }

      .cls-1, .cls-2, .cls-3, .cls-4 {
        stroke-width: 0px;
      }

      .cls-2 {
        fill: url(#linear-gradient-2);
        filter: url(#drop-shadow-2);
      }

      .cls-3 {
        fill: url(#linear-gradient);
        filter: url(#drop-shadow-1);
      }

      .cls-4 {
        fill: url(#linear-gradient-4);
        filter: url(#drop-shadow-4);
      }
    </style>
    <linearGradient id="linear-gradient" x1="129.65" y1="259.75" x2="196.57" y2="326.67" gradientUnits="userSpaceOnUse">
      <stop offset="0" stop-color="#4c1a57"/>
      <stop offset=".15" stop-color="#491e59"/>
      <stop offset=".32" stop-color="#412c61"/>
      <stop offset=".51" stop-color="#35436f"/>
      <stop offset=".7" stop-color="#246481"/>
      <stop offset=".9" stop-color="#0e8d99"/>
      <stop offset="1" stop-color="#01a6a8"/>
    </linearGradient>
    <filter id="drop-shadow-1" filterUnits="userSpaceOnUse">
      <feOffset dx="7" dy="7"/>
      <feGaussianBlur result="blur" stdDeviation="13"/>
      <feFlood flood-color="#000" flood-opacity=".4"/>
      <feComposite in2="blur" operator="in"/>
      <feComposite in="SourceGraphic"/>
    </filter>
    <linearGradient id="linear-gradient-2" x1="223" y1="166.8" x2="567.84" y2="511.64" xlink:href="#linear-gradient"/>
    <filter id="drop-shadow-2" filterUnits="userSpaceOnUse">
      <feOffset dx="7" dy="7"/>
      <feGaussianBlur result="blur-2" stdDeviation="13"/>
      <feFlood flood-color="#000" flood-opacity=".4"/>
      <feComposite in2="blur-2" operator="in"/>
      <feComposite in="SourceGraphic"/>
    </filter>
    <linearGradient id="linear-gradient-3" x1="197.6" y1="502.37" x2="632.47" y2="937.23" xlink:href="#linear-gradient"/>
    <filter id="drop-shadow-3" filterUnits="userSpaceOnUse">
      <feOffset dx="7" dy="7"/>
      <feGaussianBlur result="blur-3" stdDeviation="13"/>
      <feFlood flood-color="#000" flood-opacity=".4"/>
      <feComposite in2="blur-3" operator="in"/>
      <feComposite in="SourceGraphic"/>
    </filter>
    <linearGradient id="linear-gradient-4" x1="213.83" y1="622.42" x2="631.18" y2="1039.77" xlink:href="#linear-gradient"/>
    <filter id="drop-shadow-4" filterUnits="userSpaceOnUse">
      <feOffset dx="7" dy="7"/>
      <feGaussianBlur result="blur-4" stdDeviation="13"/>
      <feFlood flood-color="#000" flood-opacity=".4"/>
      <feComposite in2="blur-4" operator="in"/>
      <feComposite in="SourceGraphic"/>
    </filter>
  </defs>
  <g id="Layer_1-2" data-name="Layer 1">
    <path class="cls-3" d="m200.63,304.81v-23.2c3.47-1.13,5.97-4.39,5.97-8.24,0-4.79-3.88-8.67-8.67-8.67-2.24,0-4.28.86-5.82,2.25l-20.76-11.99c.02-.25.04-.49.04-.74,0-4.79-3.88-8.67-8.67-8.67s-8.67,3.88-8.67,8.67c0,.4.04.79.09,1.17l-20.02,11.56c-1.54-1.4-3.58-2.25-5.82-2.25-4.79,0-8.67,3.88-8.67,8.67,0,3.85,2.51,7.1,5.97,8.24v23.2c-3.47,1.13-5.97,4.39-5.97,8.24,0,4.79,3.88,8.67,8.67,8.67,2.03,0,3.9-.7,5.37-1.87l20.47,11.82c-.05.38-.09.77-.09,1.17,0,4.79,3.88,8.67,8.67,8.67s8.67-3.88,8.67-8.67c0-.25-.02-.5-.04-.74l21.2-12.24c1.48,1.17,3.34,1.87,5.37,1.87,4.79,0,8.67-3.88,8.67-8.67,0-3.85-2.51-7.1-5.97-8.24Zm-4.61-.22c-3.87.87-6.76,4.32-6.76,8.45,0,1.08.21,2.11.57,3.06l-20.11,11.61c-1.58-2.15-4.12-3.56-6.99-3.56s-5.17,1.27-6.76,3.24l-19.56-11.29c.36-.95.57-1.98.57-3.06,0-4.13-2.89-7.58-6.76-8.45v-22.77c3.87-.87,6.76-4.32,6.76-8.45,0-.88-.13-1.73-.38-2.53l19.37-11.19c1.59,1.97,4.02,3.24,6.76,3.24,2.87,0,5.42-1.4,6.99-3.56l19.92,11.5c-.24.8-.38,1.65-.38,2.53,0,4.13,2.89,7.58,6.76,8.45v22.77Zm-12.19,2.03l-20.72,11.6-20.72-11.6c.83.46,1.85.46,2.67,0l18.05-10.1,18.05,10.1c.83.46,1.85.46,2.67,0Zm1.34-23.95v21.71c0-.93-.51-1.78-1.34-2.25l-18.05-10.1v-20.21c0-.93-.51-1.78-1.34-2.25l19.38,10.85c.83.46,1.34,1.32,1.34,2.25Zm-24.73,9.36l-18.05,10.1c-.83.46-1.34,1.32-1.34,2.25v-21.71c0-.93.51-1.78,1.34-2.25l19.38-10.85c-.83.46-1.34,1.32-1.34,2.25v20.21Z"/>
    <path class="cls-2" d="m316.3,108.5s39-43,39-74c0,0,8,3,7,11,0,0,5,18-21,50,0,0-25,21-25,13Zm-40.3,234.4v.1c-.08.05-.06,0,0-.1Zm-43.7-107.4s57-33,65-32c0,0,11,1,9,6s-4,9-13,13-54,37-57,42c0,0,3,10,24,19,0,0,0-20,14-29,0,0,28-22,45-27,0,0,32.52-11.43,39.06-28.51.44-1.14.76-2.3.94-3.49,0,0-14,2-19-6,0,0,42-14,33-45,0,0-9,14-42,11,0,0-9-11,37-40,0,0,51-38,45-77,0,0-2-7-7-6,0,0-12,54-81,90,0,0-45,23-63,39,0,0-10,9-14,29,0,0-6.65,10.67-22.82,15.83,0,0-11.93-.17-16.05,0,0,0-2.12-.83-5.12,5.17,0,0-3,11.93,0,15.46,0,0,0,5.54,4,10.54,0,0,11,10,11,12h1.96s.04-10,11.04-14Zm70.55-77.55c-1.45,36.45-34.55,35.55-34.55,35.55-5-18,34.55-35.55,34.55-35.55Zm127.72,412.05c-2.28.24-11.17.66-23.56-.77-22.58-2.59-103.17-20.5-130.19-98.73,0,0-3.02-64.51,57.18-86.5,0,0-26.46,115.28,97.24,119.06,192.06,5.87,197.1-328.63-47.4-323.06,0,0,17.03-5,12.1-60,300.48-18.77,331.54,419.14,34.64,450Zm-96.57-326.76l1,69.76c-28.17-1.28-57.73,28.01-59,29.9v-64.56c0-18.65,58-35.1,58-35.1Zm0,342.76s-60.98-10.73-97.79-82.94c-44.28-86.83,54.49-209.74,182.1-190.56,113.55,17.07,67-93,67-93,16.3.5,57.39,60.66,60.7,94.33,3.67,37.34-71.91,59.3-75.7,55.67-.02,6.72-122.33-49.95-194.3,43.67-76.18,99.09,58,172.83,58,172.83Zm154.3-204.5c49.8-9,57.7-36.5,57.7-36.5-.5,106.5-71.92,135-71.92,135,45.58-33.5,14.22-98.5,14.22-98.5Z"/>
    <path class="cls-1" d="m32.7,773.67v-106.4h43c7.69,0,14.66,1.29,20.9,3.88,6.24,2.58,11.64,6.23,16.18,10.94,4.54,4.71,8.02,10.31,10.41,16.8,2.4,6.49,3.6,13.68,3.6,21.58s-1.2,14.97-3.6,21.51c-2.4,6.54-5.84,12.16-10.34,16.87s-9.89,8.36-16.18,10.94c-6.29,2.58-13.29,3.88-20.98,3.88h-43Zm22.48-16.57l-2.4-3.95h22.18c4.5,0,8.54-.78,12.14-2.36,3.6-1.57,6.67-3.75,9.21-6.54,2.55-2.79,4.47-6.21,5.77-10.26,1.3-4.05,1.95-8.56,1.95-13.53s-.65-9.45-1.95-13.45c-1.3-4-3.22-7.42-5.77-10.26-2.55-2.84-5.62-5.04-9.21-6.61-3.6-1.57-7.64-2.36-12.14-2.36h-22.62l2.85-3.65v72.96Zm102.94,16.57l41.05-106.4h20.08l40.9,106.4h-23.07l-21.13-57.3c-.6-1.62-1.33-3.7-2.17-6.23-.85-2.53-1.72-5.22-2.62-8.06-.9-2.84-1.75-5.55-2.55-8.13-.8-2.58-1.4-4.74-1.8-6.46l4.05-.15c-.6,2.33-1.27,4.74-2.02,7.22-.75,2.48-1.52,5.02-2.32,7.6-.8,2.58-1.65,5.09-2.55,7.52-.9,2.43-1.75,4.81-2.55,7.14l-21.13,56.85h-22.18Zm19.03-22.34l7.34-18.39h48.1l7.49,18.39h-62.93Zm124.06,22.34v-106.4h20.08l57.99,79.5h-4.2c-.4-3.14-.75-6.21-1.05-9.2-.3-2.99-.58-6.03-.82-9.12-.25-3.09-.45-6.28-.6-9.58-.15-3.29-.28-6.79-.37-10.49-.1-3.7-.15-7.73-.15-12.08v-29.03h22.03v106.4h-20.38l-59.18-80.26,5.69.15c.5,5.27.92,9.75,1.27,13.45.35,3.7.62,6.92.82,9.65.2,2.74.37,5.12.52,7.14.15,2.03.25,3.95.3,5.78.05,1.82.07,3.75.07,5.78v38.3h-22.03Zm134.1,0l41.05-106.4h20.08l40.9,106.4h-23.07l-21.13-57.3c-.6-1.62-1.33-3.7-2.17-6.23-.85-2.53-1.72-5.22-2.62-8.06-.9-2.84-1.75-5.55-2.55-8.13-.8-2.58-1.4-4.74-1.8-6.46l4.05-.15c-.6,2.33-1.27,4.74-2.02,7.22-.75,2.48-1.52,5.02-2.32,7.6-.8,2.58-1.65,5.09-2.55,7.52-.9,2.43-1.75,4.81-2.55,7.14l-21.13,56.85h-22.18Zm19.03-22.34l7.34-18.39h48.1l7.49,18.39h-62.93Zm124.06,22.34v-106.4h20.08l57.99,79.5h-4.2c-.4-3.14-.75-6.21-1.05-9.2-.3-2.99-.58-6.03-.82-9.12-.25-3.09-.45-6.28-.6-9.58-.15-3.29-.28-6.79-.37-10.49-.1-3.7-.15-7.73-.15-12.08v-29.03h22.03v106.4h-20.38l-59.18-80.26,5.69.15c.5,5.27.92,9.75,1.27,13.45.35,3.7.62,6.92.82,9.65.2,2.74.37,5.12.52,7.14.15,2.03.25,3.95.3,5.78.05,1.82.07,3.75.07,5.78v38.3h-22.03Zm194.63,1.52c-8.09,0-15.51-1.39-22.25-4.18-6.74-2.79-12.56-6.66-17.46-11.63-4.9-4.96-8.67-10.79-11.31-17.48-2.65-6.69-3.97-13.93-3.97-21.74s1.37-15.02,4.12-21.66c2.75-6.64,6.64-12.41,11.69-17.33,5.04-4.91,10.96-8.74,17.76-11.48,6.79-2.74,14.23-4.1,22.33-4.1,5.59,0,10.94.76,16.03,2.28,5.09,1.52,9.74,3.6,13.93,6.23,4.2,2.64,7.69,5.68,10.49,9.12l-13.93,14.9c-2.6-2.53-5.32-4.69-8.17-6.46-2.85-1.77-5.82-3.14-8.92-4.1-3.1-.96-6.29-1.44-9.59-1.44-4.7,0-9.02.86-12.96,2.58-3.95,1.72-7.42,4.1-10.41,7.14-3,3.04-5.32,6.64-6.97,10.79-1.65,4.16-2.47,8.66-2.47,13.53s.87,9.25,2.62,13.45c1.75,4.21,4.14,7.85,7.19,10.94,3.05,3.09,6.62,5.52,10.71,7.3,4.09,1.77,8.49,2.66,13.19,2.66,3.3,0,6.44-.51,9.44-1.52,3-1.01,5.62-2.46,7.87-4.33,2.25-1.87,3.99-4.08,5.24-6.61,1.25-2.53,1.87-5.22,1.87-8.06v-3.65l3,4.26h-29.97v-19h48.55c.1,1.12.22,2.48.37,4.1.15,1.62.25,3.22.3,4.79.05,1.57.07,2.81.07,3.72,0,6.89-1.22,13.22-3.67,19-2.45,5.78-5.84,10.74-10.19,14.9-4.35,4.16-9.47,7.37-15.36,9.65-5.9,2.28-12.29,3.42-19.18,3.42Z"/>
    <path class="cls-4" d="m32.48,857.67v-53.9h21.56c3.09,0,5.76.55,8.01,1.66,2.25,1.1,3.98,2.67,5.2,4.7,1.21,2.03,1.82,4.43,1.82,7.2,0,2.98-.83,5.53-2.5,7.66-1.67,2.13-3.95,3.61-6.83,4.43l-.15-1.46c2.48.46,4.63,1.35,6.45,2.66,1.82,1.31,3.25,2.91,4.29,4.81,1.04,1.9,1.56,4.03,1.56,6.39s-.41,4.59-1.21,6.54c-.81,1.95-1.96,3.62-3.45,5.01-1.49,1.39-3.29,2.45-5.39,3.2-2.1.74-4.44,1.12-7.02,1.12h-22.32Zm5.92-30.72h15.18c1.82,0,3.44-.37,4.86-1.12,1.42-.74,2.53-1.77,3.34-3.08.81-1.31,1.21-2.78,1.21-4.43,0-2.62-.87-4.72-2.62-6.31-1.75-1.59-4.19-2.39-7.32-2.39h-14.65v17.33Zm0,24.87h15.94c2.28,0,4.26-.4,5.96-1.19,1.69-.79,3.01-1.94,3.95-3.43.94-1.49,1.4-3.21,1.4-5.16,0-1.85-.49-3.46-1.48-4.85-.99-1.39-2.35-2.46-4.1-3.23-1.75-.77-3.78-1.16-6.11-1.16h-15.56v19.02Zm53.44,5.85v-53.9h5.92v48.05h25.5v5.85h-31.42Zm71.8.77c-3.75,0-7.2-.68-10.36-2.04-3.16-1.36-5.92-3.27-8.27-5.74s-4.17-5.38-5.47-8.74-1.94-7.05-1.94-11.05.65-7.69,1.94-11.05c1.29-3.36,3.11-6.29,5.47-8.78,2.35-2.49,5.11-4.42,8.27-5.78,3.16-1.36,6.62-2.04,10.36-2.04s7.27.68,10.44,2.04c3.16,1.36,5.92,3.29,8.27,5.78,2.35,2.49,4.17,5.42,5.47,8.78,1.29,3.36,1.94,7.05,1.94,11.05s-.65,7.61-1.94,10.97c-1.29,3.36-3.11,6.29-5.47,8.78-2.35,2.49-5.11,4.42-8.27,5.78-3.16,1.36-6.64,2.04-10.44,2.04Zm0-5.93c2.88,0,5.55-.53,8.01-1.58,2.45-1.05,4.57-2.55,6.34-4.5,1.77-1.95,3.15-4.25,4.14-6.89.99-2.64,1.48-5.53,1.48-8.66s-.49-6.09-1.48-8.74c-.99-2.64-2.37-4.94-4.14-6.89-1.77-1.95-3.88-3.46-6.34-4.54-2.45-1.08-5.12-1.62-8.01-1.62s-5.55.54-8.01,1.62c-2.46,1.08-4.57,2.59-6.34,4.54-1.77,1.95-3.14,4.25-4.1,6.89-.96,2.64-1.44,5.56-1.44,8.74s.48,6.02,1.44,8.66c.96,2.64,2.33,4.94,4.1,6.89,1.77,1.95,3.88,3.45,6.34,4.5,2.45,1.05,5.12,1.58,8.01,1.58Zm68.08,5.93c-3.8,0-7.29-.68-10.47-2.04-3.19-1.36-5.95-3.28-8.27-5.78-2.33-2.49-4.14-5.43-5.43-8.82-1.29-3.39-1.94-7.08-1.94-11.09s.65-7.58,1.94-10.9c1.29-3.31,3.12-6.21,5.5-8.7,2.38-2.49,5.14-4.4,8.27-5.74,3.14-1.33,6.58-2,10.32-2,2.48,0,4.93.4,7.36,1.19,2.43.8,4.67,1.89,6.72,3.27,2.05,1.39,3.73,2.98,5.05,4.77l-4.1,4.31c-1.27-1.54-2.72-2.87-4.36-4-1.65-1.13-3.38-2-5.2-2.62-1.82-.62-3.64-.92-5.46-.92-2.83,0-5.48.53-7.93,1.58-2.46,1.05-4.57,2.53-6.34,4.43-1.77,1.9-3.15,4.16-4.14,6.78-.99,2.62-1.48,5.47-1.48,8.55s.49,6.11,1.48,8.78c.99,2.67,2.4,4.97,4.25,6.89,1.85,1.92,4.02,3.41,6.53,4.47,2.5,1.05,5.3,1.58,8.39,1.58,1.82,0,3.64-.27,5.46-.81,1.82-.54,3.49-1.29,5.01-2.27,1.52-.97,2.81-2.08,3.87-3.31l3.04,5c-1.16,1.44-2.72,2.71-4.67,3.81-1.95,1.1-4.09,1.98-6.41,2.62-2.33.64-4.66.96-6.98.96Zm37.72-.77v-53.9h5.92v53.9h-5.92Zm4.48-16.55l-.23-7.16,30.06-30.18h7.97l-37.8,37.35Zm31.12,16.55l-21.33-28.8,4.33-3.85,24.44,32.65h-7.44Zm44.48.77c-3.8,0-7.29-.68-10.47-2.04-3.19-1.36-5.95-3.28-8.27-5.78-2.33-2.49-4.14-5.43-5.43-8.82-1.29-3.39-1.94-7.08-1.94-11.09s.65-7.58,1.94-10.9c1.29-3.31,3.12-6.21,5.5-8.7,2.38-2.49,5.14-4.4,8.27-5.74,3.14-1.33,6.58-2,10.32-2,2.48,0,4.93.4,7.36,1.19,2.43.8,4.67,1.89,6.72,3.27,2.05,1.39,3.73,2.98,5.05,4.77l-4.1,4.31c-1.27-1.54-2.72-2.87-4.36-4-1.65-1.13-3.38-2-5.2-2.62-1.82-.62-3.64-.92-5.46-.92-2.83,0-5.48.53-7.93,1.58-2.46,1.05-4.57,2.53-6.34,4.43-1.77,1.9-3.15,4.16-4.14,6.78-.99,2.62-1.48,5.47-1.48,8.55s.49,6.11,1.48,8.78c.99,2.67,2.4,4.97,4.25,6.89,1.85,1.92,4.02,3.41,6.53,4.47,2.5,1.05,5.3,1.58,8.39,1.58,1.82,0,3.64-.27,5.46-.81,1.82-.54,3.49-1.29,5.01-2.27,1.52-.97,2.81-2.08,3.87-3.31l3.04,5c-1.16,1.44-2.72,2.71-4.67,3.81-1.95,1.1-4.09,1.98-6.41,2.62-2.33.64-4.66.96-6.98.96Zm37.72-.77v-53.9h5.92v53.9h-5.92Zm2.88-23.95v-5.85h35.14v5.85h-35.14Zm32.64,23.95v-53.9h5.92v53.9h-5.92Zm24.06,0l20.34-53.9h6.76l20.19,53.9h-6.45l-12.98-34.96c-.35-.97-.75-2.12-1.18-3.43-.43-1.31-.89-2.67-1.37-4.08-.48-1.41-.94-2.78-1.37-4.12-.43-1.33-.82-2.51-1.18-3.54h1.52c-.41,1.28-.82,2.58-1.25,3.89-.43,1.31-.87,2.62-1.33,3.93-.46,1.31-.91,2.61-1.37,3.89-.46,1.28-.91,2.57-1.37,3.85l-12.9,34.57h-6.07Zm8.65-14.86l2.2-5.85h25.12l2.43,5.85h-29.75Zm54.27,14.86v-5.7h8.58v-42.5h-8.58v-5.7h23.07v5.7h-8.58v42.5h8.58v5.7h-23.07Zm44.63,0v-53.9h5.39l34.76,46.66-1.06,1.39c-.15-.82-.27-2.05-.34-3.7-.08-1.64-.15-3.5-.23-5.58s-.14-4.25-.19-6.51c-.05-2.26-.09-4.47-.11-6.62-.03-2.16-.04-4.11-.04-5.85v-19.79h5.92v53.9h-5.54l-34.61-46.05.91-1.62c.15,2.05.29,4.08.42,6.08.13,2,.23,3.93.3,5.78.08,1.85.14,3.54.19,5.08.05,1.54.09,2.85.11,3.93.02,1.08.04,1.85.04,2.31v24.49h-5.92Zm97.84,0v-53.9h5.92v53.9h-5.92Zm2.88-23.95v-5.85h35.14v5.85h-35.14Zm32.64,23.95v-53.9h5.92v53.9h-5.92Zm50.4.54c-4,0-7.57-.91-10.7-2.73-3.14-1.82-5.6-4.34-7.4-7.55-1.8-3.21-2.69-6.84-2.69-10.9v-33.26h5.92v32.57c0,3.03.66,5.75,1.97,8.16,1.32,2.41,3.1,4.31,5.35,5.7,2.25,1.39,4.77,2.08,7.55,2.08,2.93,0,5.55-.69,7.86-2.08,2.3-1.39,4.11-3.29,5.43-5.7,1.32-2.41,1.97-5.13,1.97-8.16v-32.57h5.69v33.26c0,4.06-.9,7.69-2.69,10.9-1.8,3.21-4.28,5.72-7.44,7.55-3.16,1.82-6.77,2.73-10.82,2.73Zm44.71-.54v-53.9h21.56c3.09,0,5.76.55,8.01,1.66,2.25,1.1,3.98,2.67,5.2,4.7,1.21,2.03,1.82,4.43,1.82,7.2,0,2.98-.83,5.53-2.5,7.66-1.67,2.13-3.95,3.61-6.83,4.43l-.15-1.46c2.48.46,4.63,1.35,6.45,2.66,1.82,1.31,3.25,2.91,4.29,4.81,1.04,1.9,1.56,4.03,1.56,6.39s-.41,4.59-1.21,6.54c-.81,1.95-1.96,3.62-3.45,5.01-1.49,1.39-3.29,2.45-5.39,3.2-2.1.74-4.44,1.12-7.02,1.12h-22.32Zm5.92-30.72h15.18c1.82,0,3.44-.37,4.86-1.12,1.42-.74,2.53-1.77,3.34-3.08.81-1.31,1.21-2.78,1.21-4.43,0-2.62-.87-4.72-2.62-6.31-1.75-1.59-4.19-2.39-7.32-2.39h-14.65v17.33Zm0,24.87h15.94c2.28,0,4.26-.4,5.96-1.19,1.69-.79,3.01-1.94,3.95-3.43.94-1.49,1.4-3.21,1.4-5.16,0-1.85-.49-3.46-1.48-4.85-.99-1.39-2.35-2.46-4.1-3.23-1.75-.77-3.78-1.16-6.11-1.16h-15.56v19.02Z"/>
  </g>
</svg>